<svg fill="none" height="37" viewBox="0 0 38 37" width="38" xmlns="http://www.w3.org/2000/svg">
    <path
        d="M18.9991 0C19.6546 0 20.1866 0.518013 20.1866 1.15628V3.46884C20.1866 3.7755 20.0614 4.06961 19.8387 4.28645C19.616 4.50329 19.314 4.62512 18.9991 4.62512C18.6841 4.62512 18.3821 4.50329 18.1594 4.28645C17.9367 4.06961 17.8116 3.7755 17.8116 3.46884V1.15628C17.8116 0.518013 18.3436 0 18.9991 0ZM28.5209 18.543C28.5209 23.639 24.2782 27.7701 19.0447 27.7701C13.8102 27.7701 9.56745 23.639 9.56745 18.543C9.56745 13.4461 13.8102 9.31498 19.0447 9.31498C24.2782 9.31498 28.5209 13.4461 28.5209 18.543ZM36.8125 19.6558C37.1274 19.6558 37.4295 19.534 37.6522 19.3172C37.8749 19.1003 38 18.8062 38 18.4995C38 18.1929 37.8749 17.8988 37.6522 17.6819C37.4295 17.4651 37.1274 17.3433 36.8125 17.3433H34.4375C34.1226 17.3433 33.8205 17.4651 33.5978 17.6819C33.3751 17.8988 33.25 18.1929 33.25 18.4995C33.25 18.8062 33.3751 19.1003 33.5978 19.3172C33.8205 19.534 34.1226 19.6558 34.4375 19.6558H36.8125ZM18.9991 32.3749C19.6546 32.3749 20.1866 32.8929 20.1866 33.5312V35.8437C20.1866 36.1504 20.0614 36.4445 19.8387 36.6613C19.616 36.8782 19.314 37 18.9991 37C18.6841 37 18.3821 36.8782 18.1594 36.6613C17.9367 36.4445 17.8116 36.1504 17.8116 35.8437V33.5312C17.8116 32.8929 18.3436 32.3749 18.9991 32.3749ZM3.5625 19.6558C3.87744 19.6558 4.17949 19.534 4.40219 19.3172C4.62489 19.1003 4.75 18.8062 4.75 18.4995C4.75 18.1929 4.62489 17.8988 4.40219 17.6819C4.17949 17.4651 3.87744 17.3433 3.5625 17.3433H1.1875C0.872555 17.3433 0.57051 17.4651 0.347811 17.6819C0.125111 17.8988 0 18.1929 0 18.4995C0 18.8062 0.125111 19.1003 0.347811 19.3172C0.57051 19.534 0.872555 19.6558 1.1875 19.6558H3.5625ZM5.0977 4.96275C5.20797 4.85535 5.3389 4.77015 5.48299 4.71202C5.62709 4.65389 5.78153 4.62398 5.9375 4.62398C6.09347 4.62398 6.24791 4.65389 6.39201 4.71202C6.5361 4.77015 6.66703 4.85535 6.7773 4.96275L9.1523 7.27531C9.26258 7.38269 9.35007 7.51018 9.40975 7.65048C9.46944 7.79078 9.50016 7.94116 9.50016 8.09303C9.50016 8.24489 9.46944 8.39527 9.40975 8.53557C9.35007 8.67588 9.26258 8.80336 9.1523 8.91075C9.04202 9.01813 8.91109 9.10331 8.767 9.16143C8.6229 9.21955 8.46847 9.24946 8.3125 9.24946C8.15653 9.24946 8.0021 9.21955 7.858 9.16143C7.71391 9.10331 7.58298 9.01813 7.4727 8.91075L5.0977 6.59819C4.9874 6.49082 4.8999 6.36334 4.8402 6.22303C4.7805 6.08272 4.74978 5.93234 4.74978 5.78047C4.74978 5.6286 4.7805 5.47822 4.8402 5.33791C4.8999 5.1976 4.9874 5.07012 5.0977 4.96275ZM6.7773 32.0373C6.55457 32.2541 6.25249 32.376 5.9375 32.376C5.62251 32.376 5.32043 32.2541 5.0977 32.0373C4.87497 31.8204 4.74984 31.5262 4.74984 31.2195C4.74984 30.9128 4.87497 30.6187 5.0977 30.4018L7.4727 28.0893C7.58298 27.9819 7.71391 27.8967 7.858 27.8386C8.0021 27.7805 8.15653 27.7505 8.3125 27.7505C8.46847 27.7505 8.6229 27.7805 8.767 27.8386C8.91109 27.8967 9.04202 27.9819 9.1523 28.0893C9.26258 28.1966 9.35007 28.3241 9.40975 28.4644C9.46944 28.6047 9.50016 28.7551 9.50016 28.907C9.50016 29.0588 9.46944 29.2092 9.40975 29.3495C9.35007 29.4898 9.26258 29.6173 9.1523 29.7247L6.7773 32.0373ZM32.9023 4.96275C32.6796 4.74612 32.3777 4.62444 32.063 4.62444C31.7482 4.62444 31.4463 4.74612 31.2237 4.96275L28.8487 7.27531C28.6259 7.49218 28.5008 7.78632 28.5008 8.09303C28.5008 8.39973 28.6259 8.69387 28.8487 8.91075C29.0714 9.12762 29.3735 9.24946 29.6884 9.24946C30.0034 9.24946 30.3055 9.12762 30.5282 8.91075L32.9032 6.59819C33.0136 6.49082 33.1011 6.36334 33.1607 6.22303C33.2204 6.08272 33.2512 5.93234 33.2512 5.78047C33.2512 5.6286 33.2204 5.47822 33.1607 5.33791C33.1011 5.1976 33.0126 5.07012 32.9023 4.96275ZM31.2237 32.0373C31.4464 32.2541 31.7485 32.376 32.0634 32.376C32.3784 32.376 32.6805 32.2541 32.9032 32.0373C33.126 31.8204 33.2511 31.5262 33.2511 31.2195C33.2511 30.9128 33.126 30.6187 32.9032 30.4018L30.5282 28.0893C30.418 27.9819 30.287 27.8967 30.1429 27.8386C29.9989 27.7805 29.8444 27.7505 29.6884 27.7505C29.5325 27.7505 29.378 27.7805 29.234 27.8386C29.0899 27.8967 28.9589 27.9819 28.8487 28.0893C28.7384 28.1966 28.6509 28.3241 28.5912 28.4644C28.5315 28.6047 28.5008 28.7551 28.5008 28.907C28.5008 29.0588 28.5315 29.2092 28.5912 29.3495C28.6509 29.4898 28.7384 29.6173 28.8487 29.7247L31.2237 32.0373Z"
        fill="#FFC700" />
</svg>
